<?xml version="1.0" encoding="utf-8"?>
<!-- Generator: Adobe Illustrator 25.2.1, SVG Export Plug-In . SVG Version: 6.00 Build 0)  -->
<svg version="1.1" id="Layer_1" xmlns="http://www.w3.org/2000/svg" xmlns:xlink="http://www.w3.org/1999/xlink" x="0px" y="0px"
	 viewBox="0 0 945.9 184" style="enable-background:new 0 0 945.9 184;" xml:space="preserve">
<style type="text/css">
	.st0{fill:#002B83;stroke:#FFFFFF;stroke-width:3;stroke-miterlimit:10;}
	.st1{fill:#F81B00;stroke:#FFFFFF;stroke-width:3;stroke-miterlimit:10;}
</style>
<g>
	
		<image style="overflow:visible;opacity:0.75;" width="959" height="203" xlink:href="3BC909EA.png"  transform="matrix(1 0 0 1 -6 -7)">
	</image>
	<g>
		<g>
			<g>
				<path class="st0" d="M12.1,169.1H100l6.8-26.1H85.5l21.2-87h14.4l-1.2,14.4h30.4l12.3-45.8H16.4l-12,45.8h31.7l6.5-14.7h15.7
					L37.4,143H19.2L12.1,169.1z M243.8,169.1h-56.9l-8-118.3h-11.7l6.8-26.1h75.3l-6.8,26.1h-12.9l-0.3,74.1l43.3-74.1h-14.4
					l8.3-26.1h67.9L243.8,169.1z M440.7,67.3c0-14.4,4.6-27.3,10.4-40.6c-25.5-4.6-53.2-6.5-78.4,0c-14,3.8-28.8,12.7-36.7,25.3
					c-9.2,14.1-7.1,32.3,4.3,44.2c5.8,5.8,12.9,9.8,20.3,13.2c5.8,2.8,16,7.1,17.5,13.8c4.3,17.2-23.4,18.7-34.1,15.4v-13.5h-28.9
					L304,165.4c25.8,6.5,52.9,8.6,79,2.8c15.7-3.7,29.8-11.7,40.3-24.3c8.6-10.8,13.5-30.7,4.3-42.4c-5.2-6.5-11.1-11.4-18.1-15.4
					c-6.8-4-14.1-6.5-20.3-11.1c-7.4-5.5-7.4-14.1,0.6-19.1c6.1-4,16.3-2.2,23-0.9l1.2,12h26.7V67.3z"/>
				<path class="st1" d="M837.1,24.3c-12-4.6-23.4-4.3-35.6-1.2c-12,3.1-20.6,9.8-30.1,17.2S751.7,55,740.7,60
					c-11.4,4.9-24.3,10.1-36.6,5.2c8.9,0.3,17.2-1.5,24.9-6.5c5.8-3.7,16-11.4,18.1-18.4H737c7.4-8,16.6-14.1,26.7-17.8l-4.9-5.8
					c13.5-9.2,28.3-13.5,44.6-14.1c7.7-0.3,15.4,0.6,22.4,2.8c7.7,2.2,13.5,5.8,19.1,11.4L837.1,24.3z M642.6,56.6
					c-4.3,0-8,0.3-12.3,1.5c-4,1.2-7.7,2.8-11.7,4.3c-7.4,3.1-14.4,7.1-21.5,10.8c-3.1,1.5-6.8,3.4-10.1,4c-3.7,0.6-8.6,0.6-12-0.9
					c-3.7-1.8-6.8-3.7-9.8-6.5c-3.1-2.8-6.1-5.5-9.2-7.7c-3.4-2.2-6.8-3.7-10.1-5.8c1.5,0,9.5-0.3,7.4-3.7c-1.8-2.8-6.1-4-9.5-4.6
					c-7.7-1.5-15.4-1.5-23-1.5c6.5-5.5,13.5-8.3,22.1-8.3c8,0,14.4,3.7,21.2,7.7c3.4,2.2,7.4,5.8,10.8,8c3.4,2.2,7.1,3.4,10.8,4.6
					c7.1,2.5,16,1.2,23-1.2c5.8-2.2,11.1-4.6,17.5-4.6C631.9,51.7,637.4,53.2,642.6,56.6L642.6,56.6z M582.4,118.4
					c12.6-0.6,23-12.9,30.1-22.1c7.7-9.8,12.9-24.6,24.9-30.1c17.8-8,36.6-1.2,52.9,7.4c15.4,7.7,36.9,6.5,52.2-0.3
					c16.9-7.4,29.8-20,44.2-30.7c13.5-10.1,31-17.2,51.9-11.7l9.2-11.1l1.8,18.1l32.6,32.9l-6.5,7.7h-20.9v-5.2
					c-6.1-4.3-12.6-7.4-20.3-6.5c-8,0.9-16.6,4.6-15.4,14.1c0.9,6.5,10.1,12.3,14.7,15.7c6.5,4.3,13.2,8.3,20,12.6
					c13.8,8.6,27,18.1,39.9,28.3c12,9.5,24.3,19.4,33.5,31.3l-28.3-5.5c5.2-3.7-0.9-7.7-4.3-10.4c-4.3-3.4-8.6-6.1-13.5-8.9
					c-9.5-5.2-19.7-8-30.1-10.4c-20-4.9-45.8-8-63.3,4.6c-0.6,0.3-1.2,0.9-1.8,1.2l-9.8-8.3c-31.7,10.8-67,8-96.2-8
					c-12,8.3-25.8,10.1-39.6,11.7c-13.2,1.5-27,0.6-40.6-0.6c-32.3,26.7-76.2,42.4-117.4,28.3l27.7-7.1v6.1
					C540,161.4,564.9,140.5,582.4,118.4z"/>
			</g>
		</g>
	</g>
</g>
</svg>
