<?xml version="1.0" encoding="utf-8"?>
<!-- Generator: Adobe Illustrator 28.0.0, SVG Export Plug-In . SVG Version: 6.00 Build 0)  -->
<svg version="1.1" id="Layer_1" xmlns="http://www.w3.org/2000/svg" xmlns:xlink="http://www.w3.org/1999/xlink" x="0px" y="0px"
	 viewBox="0 0 942.1 184" style="enable-background:new 0 0 942.1 184;" xml:space="preserve">
<style type="text/css">
	.st0{fill:#002B83;}
	.st1{fill:#FFFFFF;}
	.st2{fill:#F81B00;}
</style>
<g>
	<path class="st0" d="M17.2,174.1h87.9l6.8-26.1H90.6l21.2-87h14.4L125,75.4h30.4l12.3-45.8H21.5l-12,45.8h31.7l6.5-14.7h15.7
		L42.5,148H24.3L17.2,174.1z M248.9,174.1H192l-8-118.3h-11.7l6.8-26.1h75.3l-6.8,26.1h-12.9l-0.3,74.1l43.3-74.1h-14.4l8.3-26.1
		h67.9L248.9,174.1z M445.8,72.3c0-14.4,4.6-27.3,10.4-40.6c-25.5-4.6-53.2-6.5-78.4,0c-14,3.8-28.8,12.7-36.7,25.3
		c-9.2,14.1-7.1,32.3,4.3,44.2c5.8,5.8,12.9,9.8,20.3,13.2c5.8,2.8,16,7.1,17.5,13.8c4.3,17.2-23.4,18.7-34.1,15.4v-13.5h-28.9
		l-11.1,40.3c25.8,6.5,52.9,8.6,79,2.8c15.7-3.7,29.8-11.7,40.3-24.3c8.6-10.8,13.5-30.7,4.3-42.4c-5.2-6.5-11.1-11.4-18.1-15.4
		c-6.8-4-14.1-6.5-20.3-11.1c-7.4-5.5-7.4-14.1,0.6-19.1c6.1-4,16.3-2.2,23-0.9l1.2,12h26.7V72.3z"/>
	<path class="st1" d="M356.2,178.6c-15.1,0-31-2.1-47.6-6.2l-2-0.5l12-43.7h32.4v14c7.9,1.9,22,1.2,27.9-4.3
		c2.5-2.3,3.2-5.3,2.3-9.1c-1.2-5.2-9.4-9.2-14.9-11.8c-0.5-0.3-1-0.5-1.5-0.7c-6.2-2.9-14.3-7-20.8-13.6
		c-12.3-12.8-14.1-32-4.6-46.7c7.5-12,21.7-21.7,37.9-26.1c22-5.7,47.9-5.7,79.3,0l2.5,0.4l-1,2.3c-6.1,14.1-10.2,26.2-10.2,39.8h-2
		V74h-28.5l-1.2-12.3c-5.8-1.1-14.9-2.5-20.1,0.9c-3.2,2-5.1,4.7-5.2,7.6c-0.1,3,1.5,5.9,4.7,8.2c3.6,2.7,7.5,4.6,11.7,6.6
		c2.8,1.3,5.6,2.7,8.4,4.4c7.4,4.2,13.5,9.4,18.6,15.9c9.7,12.3,5.3,32.9-4.3,44.9c-10.3,12.4-24.7,21.1-41.4,25
		C378.2,177.4,367.4,178.6,356.2,178.6z M311.6,169c27.4,6.6,53,7.4,76.1,2.3c15.9-3.7,29.4-11.9,39.2-23.6
		c8.6-10.9,12.4-29.5,4.3-39.9c-4.9-6.1-10.5-10.9-17.5-14.9c-2.7-1.6-5.4-2.9-8.1-4.2c-4.2-2-8.5-4.1-12.4-7
		c-4.2-3.1-6.4-7.3-6.3-11.6c0.2-4.2,2.7-8.1,7-10.8c7-4.6,18.3-2.4,24.4-1.2l1.5,0.3l1.2,11.7h22.9c0.4-12.6,4.1-24,9.5-36.8
		c-29.6-5.1-54.2-5-75.1,0.4c-15,4.1-28.6,13.4-35.5,24.4c-8.6,13.2-6.9,30.3,4,41.8c6.1,6.1,13.7,10,19.7,12.8
		c0.5,0.2,1,0.5,1.5,0.7c6.2,2.9,15.5,7.3,17.1,14.4c1.3,5.1,0.1,9.6-3.4,12.9c-8,7.6-25.6,7.2-33.2,4.9l-1.4-0.4v-13h-25.4
		L311.6,169z M250,176.1h-59.9l-8-118.3h-12.4l7.8-30.1H257l-7.8,30.1h-12.5l-0.3,64.7l37.8-64.7h-13.7l9.6-30.1h73L250,176.1z
		 M193.9,172.1h53.9l88.1-140.4h-62.8l-7,22.1h15.2l-48.8,83.5l0.3-83.5h13.3l5.8-22.1h-71.2l-5.8,22.1h11L193.9,172.1z
		 M106.6,176.1H14.6l8.2-30.1h18.2l19.9-83.3H49l-6.5,14.7H6.9l13-49.8h150.4l-13.4,49.8h-34.1L124,63h-10.7l-20.2,83h21.3
		L106.6,176.1z M19.8,172.1h83.7l5.8-22.1H88.1l22.2-91h18.1l-1.2,14.4h26.7l11.2-41.8H23l-11,41.8h27.8l6.5-14.7h19.5L44.1,150
		H25.8L19.8,172.1z"/>
</g>
<g>
	<path class="st2" d="M842.2,29.3c-12-4.6-23.4-4.3-35.6-1.2c-12,3.1-20.6,9.8-30.1,17.2S756.8,60,745.8,65
		c-11.4,4.9-24.3,10.1-36.6,5.2c8.9,0.3,17.2-1.5,24.9-6.5c5.8-3.7,16-11.4,18.1-18.4h-10.1c7.4-8,16.6-14.1,26.7-17.8l-4.9-5.8
		c13.5-9.2,28.3-13.5,44.6-14.1c7.7-0.3,15.4,0.6,22.4,2.8c7.7,2.2,13.5,5.8,19.1,11.4L842.2,29.3z M647.7,61.6
		c-4.3,0-8,0.3-12.3,1.5c-4,1.2-7.7,2.8-11.7,4.3c-7.4,3.1-14.4,7.1-21.5,10.8c-3.1,1.5-6.8,3.4-10.1,4c-3.7,0.6-8.6,0.6-12-0.9
		c-3.7-1.8-6.8-3.7-9.8-6.5c-3.1-2.8-6.1-5.5-9.2-7.7c-3.4-2.2-6.8-3.7-10.1-5.8c1.5,0,9.5-0.3,7.4-3.7c-1.8-2.8-6.1-4-9.5-4.6
		c-7.7-1.5-15.4-1.5-23-1.5c6.5-5.5,13.5-8.3,22.1-8.3c8,0,14.4,3.7,21.2,7.7c3.4,2.2,7.4,5.8,10.8,8c3.4,2.2,7.1,3.4,10.8,4.6
		c7.1,2.5,16,1.2,23-1.2c5.8-2.2,11.1-4.6,17.5-4.6C637,56.7,642.5,58.2,647.7,61.6L647.7,61.6z M587.5,123.4
		c12.6-0.6,23-12.9,30.1-22.1c7.7-9.8,12.9-24.6,24.9-30.1c17.8-8,36.6-1.2,52.9,7.4c15.4,7.7,36.9,6.5,52.2-0.3
		c16.9-7.4,29.8-20,44.2-30.7c13.5-10.1,31-17.2,51.9-11.7l9.2-11.1l1.8,18.1l32.6,32.9l-6.5,7.7h-20.9v-5.2
		c-6.1-4.3-12.6-7.4-20.3-6.5c-8,0.9-16.6,4.6-15.4,14.1c0.9,6.5,10.1,12.3,14.7,15.7c6.5,4.3,13.2,8.3,20,12.6
		c13.8,8.6,27,18.1,39.9,28.3c12,9.5,24.3,19.4,33.5,31.3l-28.3-5.5c5.2-3.7-0.9-7.7-4.3-10.4c-4.3-3.4-8.6-6.1-13.5-8.9
		c-9.5-5.2-19.7-8-30.1-10.4c-20-4.9-45.8-8-63.3,4.6c-0.6,0.3-1.2,0.9-1.8,1.2l-9.8-8.3c-31.7,10.8-67,8-96.2-8
		c-12,8.3-25.8,10.1-39.6,11.7c-13.2,1.5-27,0.6-40.6-0.6c-32.3,26.7-76.2,42.4-117.4,28.3l27.7-7.1v6.1
		C545.1,166.4,570,145.5,587.5,123.4z"/>
	<path class="st1" d="M937.1,176.8l-38.1-7.4l3.8-2.7c0.4-0.3,1.2-0.9,1.2-1.5c0-1.4-2.9-3.6-4.6-5c-0.3-0.3-0.6-0.5-0.9-0.7
		c-3.7-2.9-7.7-5.5-13.2-8.7c-8.8-4.8-18.2-7.6-29.6-10.2c-27.6-6.8-48.4-5.3-61.7,4.3l-0.3,0.2c-0.1,0.1-0.4,0.3-0.6,0.4
		c-0.3,0.3-0.7,0.6-1.2,0.8l-1.2,0.6l-9.9-8.4c-31.8,10.5-66.5,7.6-95.7-7.9c-12.5,8.2-26.8,9.9-39.5,11.4
		c-13.5,1.5-27.8,0.6-40.2-0.5c-37.1,30.4-81.4,40.9-118.7,28.1l-6.3-2.2l36.7-9.4v6.6c30-1.1,53.9-23.5,68.8-42.3l0.6-0.7l0.9,0
		c11.1-0.5,20.7-11.1,28.6-21.3c2.3-2.9,4.4-6.3,6.6-9.9c5-8.2,10.2-16.8,19.1-20.8c19.4-8.7,39.4-0.6,54.7,7.4
		c13.7,6.9,34.5,6.7,50.5-0.4c12.1-5.3,22.4-13.5,32.3-21.5c3.7-3,7.6-6.1,11.5-9C807.4,33.5,825,29.3,843,33.7l9.4-11.4l-9.7,9.4
		l-1.2-0.5c-10.7-4.1-21.3-4.5-34.4-1.1c-11.6,3-19.8,9.4-29.4,16.8c-8.9,6.9-19.5,14.7-31.1,19.9c-10.4,4.5-24.7,10.6-38.2,5.2
		l-10.7-4.2l11.5,0.4c9.1,0.3,16.9-1.7,23.7-6.2c5.9-3.8,13.1-9.5,16.1-14.7h-11.6l3.1-3.4c6.9-7.5,15.5-13.4,24.8-17.3l-4.5-5.4
		l1.8-1.2C776.1,11,791,6.2,808.4,5.6c8.1-0.3,16.1,0.7,23.1,2.9c7.8,2.2,13.9,5.9,19.9,11.9l1.4,1.4l1.6-1.9l2.2,22.2L890,75.7
		l-8.3,9.8h-23.8v-6.2c-6.7-4.5-12.3-6.2-18.1-5.6c-3.3,0.4-9.1,1.5-12,5.2c-1.4,1.8-1.9,4-1.6,6.6c0.7,4.9,7.5,9.8,12.1,13
		c0.6,0.5,1.2,0.9,1.8,1.3c4.1,2.7,8.3,5.3,12.6,8c2.4,1.5,4.8,3,7.3,4.5c13.1,8.2,26.2,17.5,40.1,28.4
		c10.8,8.5,24.2,19.1,33.8,31.6L937.1,176.8z M907.7,167l19.6,3.8c-9-10.3-20.3-19.3-29.7-26.7c-13.7-10.9-26.7-20.1-39.7-28.2
		c-2.4-1.5-4.9-3-7.3-4.5c-4.2-2.6-8.6-5.3-12.8-8.1l-0.1-0.1c-0.5-0.4-1.1-0.8-1.8-1.3c-5.1-3.6-12.8-9.2-13.7-15.7
		c-0.5-3.8,0.3-7,2.4-9.6c3.6-4.6,10-6.2,14.7-6.7c9.1-1.1,16.4,3.1,21.7,6.9l0.8,0.6v4.2h18l4.7-5.6l-31.8-32.1l-1.4-14l-7,8.4
		l-1.2-0.3c-17.2-4.5-34.1-0.7-50.2,11.4c-3.9,2.9-7.7,5.9-11.4,8.9c-10.1,8.1-20.6,16.5-33.2,22c-17,7.5-39.1,7.6-53.9,0.3
		C680,72.7,661.1,65,643.3,73c-7.7,3.5-12.6,11.5-17.3,19.3c-2.1,3.5-4.4,7.1-6.8,10.3c-8.3,10.7-18.3,21.7-30.7,22.8
		c-15.8,19.8-41.3,43.1-73.4,43.2l-2,0V163l-18.2,4.7c34.7,9,74.8-2,108.7-30l0.6-0.5l0.8,0.1c12.4,1.1,26.7,2.1,40.2,0.6
		c12.5-1.5,26.8-3.1,38.7-11.4l1-0.7l1.1,0.6c28.7,15.7,63.1,18.6,94.6,7.9l1.1-0.4l9.5,8c0.2-0.1,0.4-0.3,0.6-0.4
		c14.5-10.4,35.7-12,64.8-4.8c11.7,2.7,21.3,5.5,30.6,10.6c5.8,3.3,9.9,6,13.8,9.1c0.3,0.2,0.6,0.5,0.9,0.7c2.8,2.2,6.2,4.8,6.2,8.2
		C908,165.9,907.9,166.4,907.7,167z M746.9,43.3h8l-0.8,2.6c-2.6,8.5-15.1,17.1-18.9,19.5c-2.4,1.6-5,2.9-7.6,3.9
		c5.6-1.2,11.4-3.5,17.4-6.1c11.2-5.1,21.6-12.7,30.3-19.4c9.5-7.4,18.4-14.4,30.8-17.6c13.3-3.4,24.6-3.1,35.6,0.8l5.4-5.2
		c-5-4.7-10.3-7.6-16.8-9.5c-6.6-2.1-14.1-3-21.8-2.7c-15.8,0.6-29.5,4.7-41.7,12.5l5.3,6.3l-2.7,1
		C761.1,32.4,753.4,37.2,746.9,43.3z M587.4,84.6c-2.5,0-5.5-0.3-8.1-1.4c-4.4-2.1-7.5-4.2-10.4-6.9c-2.9-2.6-5.9-5.4-9-7.5
		c-1.6-1-3.4-2-5.1-2.9c-1.6-0.9-3.3-1.8-5-2.8l-5.8-3.7h6.9c2.4,0,4.7-0.4,5.6-0.8c-0.8-1.1-2.9-2.6-8-3.5
		c-7.5-1.5-15.2-1.5-22.7-1.5h-5.5l4.2-3.5c7.1-6,14.5-8.8,23.4-8.8c8.7,0,15.5,4.1,22.2,8c1.8,1.2,3.8,2.7,5.6,4.1
		c1.8,1.4,3.6,2.8,5.3,3.9c3.2,2.1,6.7,3.2,10.3,4.4c8.1,2.9,17.9,0.1,21.7-1.2c0.6-0.2,1.3-0.5,2-0.8c5.2-2,10-3.9,15.9-3.9
		c5.9-1,11.9,0.4,17.7,4.2l5.6,3.7h-6.7c-4,0-7.5,0.2-11.8,1.4c-2.7,0.8-5.3,1.8-8,2.9c-1.2,0.5-2.3,0.9-3.5,1.4
		c-5.5,2.3-10.9,5.2-16.1,8c-1.7,0.9-3.4,1.8-5.1,2.7l-0.9,0.4c-3,1.5-6.5,3.2-9.8,3.8C591.6,84.3,589.6,84.6,587.4,84.6z
		 M557.1,62.5c1.7,0.9,3.4,1.8,5.1,2.9c3.3,2.4,6.4,5.2,9.5,7.9c2.6,2.4,5.4,4.3,9.3,6.2c3,1.3,7.6,1.2,10.8,0.7
		c2.7-0.5,5.9-2,8.7-3.4l0.8-0.4c1.7-0.9,3.3-1.8,5-2.7c5.3-2.8,10.8-5.8,16.6-8.2c1.2-0.5,2.4-0.9,3.5-1.4c2.8-1.1,5.5-2.1,8.4-3
		c1.8-0.5,3.4-0.8,5-1.1c-2.7-0.8-5.5-0.9-8.2-0.4l-0.3,0c-5.2,0-9.8,1.8-14.7,3.7c-0.7,0.3-1.4,0.5-2.1,0.8
		c-4.3,1.5-15.1,4.5-24.4,1.2c-3.7-1.2-7.6-2.5-11.2-4.8c-1.8-1.1-3.7-2.7-5.6-4.1c-1.8-1.4-3.6-2.8-5.2-3.9
		c-6.4-3.8-12.5-7.4-20.1-7.4c-5.9,0-11.1,1.4-16,4.3c5.7,0.1,11.5,0.4,17.2,1.5c5.5,1,9.1,2.8,10.8,5.5c1.1,1.7,0.6,3.1,0.2,3.7
		C559.7,61.3,558.5,62,557.1,62.5z M556.8,58.8L556.8,58.8L556.8,58.8z"/>
</g>
</svg>
